<svg xmlns="http://www.w3.org/2000/svg" viewBox="35 -695 7923 706" width="371.4" height="33.1" data-cap-height="656" data-baseline="0" data-units-per-em="1024">
  <title>Sellswords for hire</title>
  <!-- Generated by scripts/brand-wordmark.py from Crimson Text SemiBold (SIL OFL 1.1). Baseline y=0, cap height 656. Do not hand-edit: change the spacing there and re-run. -->
  <path fill="currentColor" d="M243 10Q181 10 59 -18Q53 -42 47.5 -75.5Q42 -109 38.5 -139Q35 -169 35 -180Q37 -188 51 -188Q77 -188 80 -180Q84 -162 94 -140.5Q104 -119 122 -95Q139 -70 168.5 -54.5Q198 -39 235 -39Q282 -39 313 -67Q344 -95 344 -151Q344 -191 320.5 -213.5Q297 -236 270 -255Q263 -259 248 -268Q233 -277 218.5 -286.5Q204 -296 196 -300Q177 -312 164.5 -320Q152 -328 141 -336.5Q130 -345 114 -358Q82 -384 64.5 -417Q47 -450 47 -490Q47 -540 76.5 -580.5Q106 -621 153 -644.5Q200 -668 252 -668Q280 -668 301 -665Q322 -662 333 -659Q344 -656 360 -652Q376 -648 411 -640Q423 -573 423 -486Q422 -477 411 -477Q384 -477 382 -486Q378 -517 360 -547.5Q342 -578 313.5 -599Q285 -620 249 -620Q203 -620 178.5 -594Q154 -568 154 -524Q154 -496 164 -480.5Q174 -465 190 -447Q201 -435 226 -417Q251 -399 282 -379.5Q313 -360 342 -343Q397 -311 427 -273.5Q457 -236 457 -174Q457 -121 427 -79Q397 -37 348.5 -13.5Q300 10 243 10ZM730 6Q672 6 623.5 -23.5Q575 -53 546 -103.5Q517 -154 517 -215Q517 -283 544 -334Q571 -385 617.5 -413.5Q664 -442 724 -442Q773 -442 808 -424Q843 -406 865.5 -377.5Q888 -349 898.5 -317.5Q909 -286 909 -259Q909 -237 901.5 -231.5Q894 -226 871 -226H632Q625 -226 625 -220Q625 -183 638 -150Q651 -116 682.5 -91Q714 -66 758 -66Q784 -66 801 -70Q818 -74 834 -79Q842 -82 854 -89.5Q866 -97 876 -103.5Q886 -110 886 -110Q888 -109 891 -104Q894 -99 894 -94Q894 -83 888 -75Q878 -57 854.5 -38.5Q831 -20 799 -7Q767 6 730 6ZM632 -274H794Q803 -274 803 -289Q803 -313 792.5 -337.5Q782 -362 762.5 -379Q743 -396 717 -396Q686 -396 665.5 -375Q645 -354 635.5 -327Q626 -300 626 -281Q626 -274 632 -274ZM959 3Q955 -1 955 -16Q955 -30 959 -30Q967 -30 980 -34Q993 -38 1004.5 -44Q1016 -50 1017 -54Q1021 -71 1023 -90Q1025 -109 1025 -128V-544Q1025 -582 1019 -612Q1015 -628 969 -628H959Q953 -628 953 -640Q953 -656 959 -656Q1014 -661 1058.5 -673Q1103 -685 1118 -691L1125 -694H1127Q1131 -694 1135.5 -688Q1140 -682 1141 -678Q1129 -641 1129 -584V-144Q1129 -81 1136 -54Q1138 -50 1149 -44Q1160 -38 1173 -34Q1186 -30 1191 -30Q1194 -30 1194.5 -16Q1195 -2 1193 3Q1162 1 1130 -1Q1098 -3 1077 -3Q1046 -3 1013.5 -1Q981 1 959 3ZM1254 3Q1250 -1 1250 -16Q1250 -30 1254 -30Q1262 -30 1275 -34Q1288 -38 1299.5 -44Q1311 -50 1312 -54Q1316 -71 1318 -90Q1320 -109 1320 -128V-544Q1320 -582 1314 -612Q1310 -628 1264 -628H1254Q1248 -628 1248 -640Q1248 -656 1254 -656Q1309 -661 1353.5 -673Q1398 -685 1413 -691L1420 -694H1422Q1426 -694 1430.5 -688Q1435 -682 1436 -678Q1424 -641 1424 -584V-144Q1424 -81 1431 -54Q1433 -50 1444 -44Q1455 -38 1468 -34Q1481 -30 1486 -30Q1489 -30 1489.5 -16Q1490 -2 1488 3Q1457 1 1425 -1Q1393 -3 1372 -3Q1341 -3 1308.5 -1Q1276 1 1254 3ZM1690 10Q1627 10 1561 -18Q1558 -30 1554.5 -52Q1551 -74 1548.5 -96.5Q1546 -119 1546 -131Q1553 -136 1560 -136Q1582 -136 1584 -128Q1592 -86 1623.5 -60.5Q1655 -35 1692 -35Q1720 -35 1738 -49.5Q1756 -64 1756 -93Q1756 -114 1740 -131.5Q1724 -149 1710 -156L1644 -191Q1598 -215 1573 -244.5Q1548 -274 1548 -316Q1548 -357 1570.5 -385Q1593 -413 1629.5 -428Q1666 -443 1708 -443Q1762 -443 1824 -426Q1829 -404 1831.5 -376Q1834 -348 1835 -314Q1835 -306 1822 -306Q1800 -306 1798 -314Q1791 -349 1768.5 -373.5Q1746 -398 1708 -398Q1679 -398 1662.5 -385Q1646 -372 1646 -348Q1646 -322 1666 -304Q1686 -286 1720 -269Q1746 -256 1770.5 -241Q1795 -226 1817 -208Q1856 -177 1856 -126Q1856 -84 1833.5 -53.5Q1811 -23 1773.5 -6.5Q1736 10 1690 10ZM2158 11Q2148 11 2144 4L2090 -123Q2069 -173 2050.5 -214Q2032 -255 2013.5 -294.5Q1995 -334 1972 -378Q1965 -391 1946 -398Q1927 -405 1914 -405Q1910 -405 1910 -421Q1910 -435 1914 -438Q1925 -438 1965 -435Q2006 -432 2028 -432Q2051 -432 2096 -435L2148 -438Q2150 -434 2150 -424Q2150 -414 2147 -406Q2139 -406 2125.5 -403Q2112 -400 2101.5 -394Q2091 -388 2091 -378Q2091 -375 2191 -148L2217 -212Q2220 -221 2228 -240.5Q2236 -260 2245 -282.5Q2254 -305 2260.5 -322.5Q2267 -340 2267 -344Q2267 -357 2261.5 -371Q2256 -385 2241 -395.5Q2226 -406 2196 -406Q2192 -406 2192 -421Q2192 -435 2196 -438Q2207 -438 2246 -435Q2284 -432 2308 -432Q2330 -432 2373 -435L2424 -438Q2426 -434 2425.5 -419.5Q2425 -405 2422 -405Q2371 -405 2371 -370Q2371 -349 2465 -148Q2486 -203 2505.5 -248.5Q2525 -294 2537.5 -325Q2550 -356 2550 -366Q2550 -382 2538 -390.5Q2526 -399 2509 -402Q2492 -405 2478 -405H2474Q2470 -405 2469.5 -420Q2469 -435 2472 -438Q2485 -438 2525 -435Q2566 -432 2589 -432Q2610 -432 2643 -435Q2675 -438 2690 -438Q2691 -434 2691.5 -430Q2692 -426 2692 -421Q2692 -406 2688 -406Q2680 -406 2664.5 -400.5Q2649 -395 2634 -385Q2619 -375 2614 -363L2466 -10Q2462 -2 2452.5 4.5Q2443 11 2433 11Q2423 11 2420 4L2298 -272L2191 -11Q2189 -5 2180 3Q2171 11 2158 11ZM2965 7Q2902 7 2850.5 -23.5Q2799 -54 2768.5 -105Q2738 -156 2738 -218Q2738 -281 2768 -331.5Q2798 -382 2849.5 -412Q2901 -442 2964 -442Q3027 -442 3078.5 -412Q3130 -382 3160.5 -331Q3191 -280 3191 -218Q3191 -156 3161 -105Q3131 -54 3080 -23.5Q3029 7 2965 7ZM2975 -40Q3007 -40 3029 -61Q3051 -82 3063 -117.5Q3075 -153 3075 -194Q3075 -248 3060.5 -293.5Q3046 -339 3018.5 -367Q2991 -395 2951 -395Q2920 -395 2897.5 -374Q2875 -353 2863.5 -318Q2852 -283 2852 -241Q2852 -187 2866.5 -141.5Q2881 -96 2909 -68Q2937 -40 2975 -40ZM3250 4Q3246 0 3246 -15Q3246 -30 3250 -30Q3258 -30 3272.5 -33.5Q3287 -37 3299.5 -42.5Q3312 -48 3313 -52Q3320 -80 3320 -125V-288Q3320 -336 3304 -352Q3295 -363 3282 -367.5Q3269 -372 3258.5 -373Q3248 -374 3248 -376Q3248 -404 3253 -406Q3282 -408 3316.5 -415.5Q3351 -423 3397 -432Q3412 -435 3416.5 -436.5Q3421 -438 3422 -438Q3426 -438 3429 -431.5Q3432 -425 3432 -420Q3426 -378 3426 -372Q3444 -399 3475 -420.5Q3506 -442 3538 -442Q3593 -442 3620 -409Q3620 -324 3572 -324Q3555 -324 3533 -344Q3511 -364 3490 -364Q3469 -364 3454 -349Q3439 -334 3431.5 -312Q3424 -290 3424 -267V-142Q3424 -79 3431 -52Q3433 -48 3445 -42.5Q3457 -37 3471 -33.5Q3485 -30 3491 -30Q3494 -30 3494.5 -15.5Q3495 -1 3494 4Q3489 3 3465.5 1.5Q3442 0 3415.5 -1.5Q3389 -3 3373 -3Q3357 -3 3330 -1.5Q3303 0 3279.5 1.5Q3256 3 3250 4ZM3984 6Q3978 6 3978 -11V-28Q3978 -31 3976.5 -32Q3975 -33 3974 -32Q3927 5 3870 5Q3816 5 3770.5 -22.5Q3725 -50 3697 -97Q3669 -144 3669 -204Q3669 -270 3700.5 -324.5Q3732 -379 3785 -411.5Q3838 -444 3900 -444Q3942 -444 3973 -430Q3978 -430 3978 -446V-540Q3978 -578 3972 -608Q3968 -624 3920 -624H3912Q3906 -624 3906 -640Q3906 -656 3912 -656Q3942 -659 3970.5 -664Q3999 -669 4018 -674Q4045 -682 4060.5 -688Q4076 -694 4078 -694H4080Q4084 -694 4088 -688.5Q4092 -683 4092 -678Q4082 -641 4082 -584V-144Q4082 -121 4084 -95.5Q4086 -70 4091 -64Q4096 -59 4107.5 -56Q4119 -53 4130.5 -52.5Q4142 -52 4146 -52Q4148 -50 4148 -40Q4148 -20 4142 -20Q4128 -19 4106.5 -16Q4085 -13 4065 -10Q4025 -3 4004.5 1.5Q3984 6 3984 6ZM3902 -50Q3936 -50 3957 -67.5Q3978 -85 3978 -112V-322Q3978 -336 3970.5 -353Q3963 -370 3944.5 -383Q3926 -396 3891 -396Q3838 -396 3811 -351Q3784 -306 3784 -230Q3784 -145 3815 -97.5Q3846 -50 3902 -50ZM4340 10Q4277 10 4211 -18Q4208 -30 4204.5 -52Q4201 -74 4198.5 -96.5Q4196 -119 4196 -131Q4203 -136 4210 -136Q4232 -136 4234 -128Q4242 -86 4273.5 -60.5Q4305 -35 4342 -35Q4370 -35 4388 -49.5Q4406 -64 4406 -93Q4406 -114 4390 -131.5Q4374 -149 4360 -156L4294 -191Q4248 -215 4223 -244.5Q4198 -274 4198 -316Q4198 -357 4220.5 -385Q4243 -413 4279.5 -428Q4316 -443 4358 -443Q4412 -443 4474 -426Q4479 -404 4481.5 -376Q4484 -348 4485 -314Q4485 -306 4472 -306Q4450 -306 4448 -314Q4441 -349 4418.5 -373.5Q4396 -398 4358 -398Q4329 -398 4312.5 -385Q4296 -372 4296 -348Q4296 -322 4316 -304Q4336 -286 4370 -269Q4396 -256 4420.5 -241Q4445 -226 4467 -208Q4506 -177 4506 -126Q4506 -84 4483.5 -53.5Q4461 -23 4423.5 -6.5Q4386 10 4340 10ZM4787 4Q4780 -3 4780.5 -16.5Q4781 -30 4787 -30Q4795 -30 4809 -33.5Q4823 -37 4835 -42.5Q4847 -48 4848 -52Q4857 -87 4857 -134V-364Q4857 -371 4851 -371H4791Q4789 -371 4789 -377Q4789 -388 4803 -406Q4817 -424 4835 -424H4851Q4857 -424 4857 -430V-440Q4857 -510 4886 -568Q4915 -626 4962.5 -660.5Q5010 -695 5067 -695Q5109 -695 5136.5 -684.5Q5164 -674 5173 -659Q5177 -628 5167.5 -603.5Q5158 -579 5131 -579Q5118 -579 5107.5 -589Q5097 -599 5087 -612Q5077 -625 5065 -635Q5053 -645 5037 -645Q4999 -645 4979 -595.5Q4959 -546 4959 -475V-429Q4959 -428 4961 -426Q4963 -424 4965 -424H5075Q5079 -424 5080 -423Q5081 -422 5081 -417Q5081 -395 5069 -371H4965Q4959 -371 4959 -365V-142Q4959 -113 4961 -90.5Q4963 -68 4967 -52Q4969 -48 4981 -42.5Q4993 -37 5007 -33.5Q5021 -30 5027 -30Q5030 -30 5030.5 -15.5Q5031 -1 5029 4Q5025 3 5001.5 1.5Q4978 0 4950.5 -1.5Q4923 -3 4907 -3Q4891 -3 4864.5 -1.5Q4838 0 4815.5 1.5Q4793 3 4787 4ZM5358 7Q5295 7 5243.5 -23.5Q5192 -54 5161.5 -105Q5131 -156 5131 -218Q5131 -281 5161 -331.5Q5191 -382 5242.5 -412Q5294 -442 5357 -442Q5420 -442 5471.5 -412Q5523 -382 5553.5 -331Q5584 -280 5584 -218Q5584 -156 5554 -105Q5524 -54 5473 -23.5Q5422 7 5358 7ZM5368 -40Q5400 -40 5422 -61Q5444 -82 5456 -117.5Q5468 -153 5468 -194Q5468 -248 5453.5 -293.5Q5439 -339 5411.5 -367Q5384 -395 5344 -395Q5313 -395 5290.5 -374Q5268 -353 5256.5 -318Q5245 -283 5245 -241Q5245 -187 5259.5 -141.5Q5274 -96 5302 -68Q5330 -40 5368 -40ZM5643 4Q5639 0 5639 -15Q5639 -30 5643 -30Q5651 -30 5665.5 -33.5Q5680 -37 5692.5 -42.5Q5705 -48 5706 -52Q5713 -80 5713 -125V-288Q5713 -336 5697 -352Q5688 -363 5675 -367.5Q5662 -372 5651.5 -373Q5641 -374 5641 -376Q5641 -404 5646 -406Q5675 -408 5709.5 -415.5Q5744 -423 5790 -432Q5805 -435 5809.5 -436.5Q5814 -438 5815 -438Q5819 -438 5822 -431.5Q5825 -425 5825 -420Q5819 -378 5819 -372Q5837 -399 5868 -420.5Q5899 -442 5931 -442Q5986 -442 6013 -409Q6013 -324 5965 -324Q5948 -324 5926 -344Q5904 -364 5883 -364Q5862 -364 5847 -349Q5832 -334 5824.5 -312Q5817 -290 5817 -267V-142Q5817 -79 5824 -52Q5826 -48 5838 -42.5Q5850 -37 5864 -33.5Q5878 -30 5884 -30Q5887 -30 5887.5 -15.5Q5888 -1 5887 4Q5882 3 5858.5 1.5Q5835 0 5808.5 -1.5Q5782 -3 5766 -3Q5750 -3 5723 -1.5Q5696 0 5672.5 1.5Q5649 3 5643 4ZM6281 4Q6277 0 6277 -15Q6277 -30 6281 -30Q6289 -30 6303.5 -33.5Q6318 -37 6330.5 -42.5Q6343 -48 6344 -52Q6351 -80 6351 -124V-540Q6351 -560 6349.5 -577Q6348 -594 6346 -608Q6342 -624 6294 -624H6285Q6279 -624 6279 -640Q6279 -656 6285 -656Q6316 -659 6344 -664Q6372 -669 6391 -674Q6417 -682 6434 -688Q6451 -694 6451 -694H6453Q6457 -694 6461 -688.5Q6465 -683 6466 -678Q6454 -639 6454 -584V-382Q6454 -376 6458 -376Q6459 -376 6462 -379Q6483 -403 6523.5 -422.5Q6564 -442 6604 -442Q6732 -442 6732 -245V-142Q6732 -82 6740 -52Q6741 -48 6753.5 -42.5Q6766 -37 6780.5 -33.5Q6795 -30 6801 -30Q6804 -30 6804.5 -15.5Q6805 -1 6804 4Q6800 3 6775.5 1.5Q6751 0 6724 -1.5Q6697 -3 6682 -3Q6666 -3 6640 -1.5Q6614 0 6591.5 1.5Q6569 3 6562 4Q6559 -1 6559 -15Q6559 -30 6562 -30Q6570 -30 6583.5 -33.5Q6597 -37 6608.5 -42.5Q6620 -48 6622 -52Q6628 -82 6628 -125V-223Q6628 -306 6605.5 -337.5Q6583 -369 6534 -369Q6504 -369 6479 -352Q6454 -335 6454 -314V-142Q6454 -82 6462 -52Q6464 -48 6476 -42.5Q6488 -37 6502 -33.5Q6516 -30 6522 -30Q6525 -30 6525.5 -15.5Q6526 -1 6524 4Q6519 3 6495.5 1.5Q6472 0 6446 -1.5Q6420 -3 6404 -3Q6388 -3 6361 -1.5Q6334 0 6310.5 1.5Q6287 3 6281 4ZM6855 3Q6851 -1 6851 -16Q6851 -30 6855 -30Q6863 -30 6876 -34Q6889 -38 6900.5 -44Q6912 -50 6913 -54Q6917 -71 6919 -90Q6921 -109 6921 -128V-289Q6921 -336 6905 -353Q6896 -364 6882.5 -368Q6869 -372 6858.5 -373Q6848 -374 6848 -376Q6848 -406 6853 -406Q6885 -410 6923.5 -417.5Q6962 -425 6993 -432L7025 -440Q7032 -440 7032 -420Q7032 -407 7028.5 -382.5Q7025 -358 7025 -334V-144Q7025 -81 7032 -54Q7034 -50 7045 -44Q7056 -38 7069 -34Q7082 -30 7087 -30Q7090 -30 7090.5 -16Q7091 -2 7089 3Q7058 1 7026 -1Q6994 -3 6973 -3Q6942 -3 6909.5 -1Q6877 1 6855 3ZM6965 -544Q6940 -544 6922 -562Q6904 -580 6904 -605Q6904 -630 6922 -647.5Q6940 -665 6965 -665Q6990 -665 7007.5 -647.5Q7025 -630 7025 -605Q7025 -580 7007.5 -562Q6990 -544 6965 -544ZM7143 4Q7139 0 7139 -15Q7139 -30 7143 -30Q7151 -30 7165.5 -33.5Q7180 -37 7192.5 -42.5Q7205 -48 7206 -52Q7213 -80 7213 -125V-288Q7213 -336 7197 -352Q7188 -363 7175 -367.5Q7162 -372 7151.5 -373Q7141 -374 7141 -376Q7141 -404 7146 -406Q7175 -408 7209.5 -415.5Q7244 -423 7290 -432Q7305 -435 7309.5 -436.5Q7314 -438 7315 -438Q7319 -438 7322 -431.5Q7325 -425 7325 -420Q7319 -378 7319 -372Q7337 -399 7368 -420.5Q7399 -442 7431 -442Q7486 -442 7513 -409Q7513 -324 7465 -324Q7448 -324 7426 -344Q7404 -364 7383 -364Q7362 -364 7347 -349Q7332 -334 7324.5 -312Q7317 -290 7317 -267V-142Q7317 -79 7324 -52Q7326 -48 7338 -42.5Q7350 -37 7364 -33.5Q7378 -30 7384 -30Q7387 -30 7387.5 -15.5Q7388 -1 7387 4Q7382 3 7358.5 1.5Q7335 0 7308.5 -1.5Q7282 -3 7266 -3Q7250 -3 7223 -1.5Q7196 0 7172.5 1.5Q7149 3 7143 4ZM7779 6Q7721 6 7672.5 -23.5Q7624 -53 7595 -103.5Q7566 -154 7566 -215Q7566 -283 7593 -334Q7620 -385 7666.5 -413.5Q7713 -442 7773 -442Q7822 -442 7857 -424Q7892 -406 7914.5 -377.5Q7937 -349 7947.5 -317.5Q7958 -286 7958 -259Q7958 -237 7950.5 -231.5Q7943 -226 7920 -226H7681Q7674 -226 7674 -220Q7674 -183 7687 -150Q7700 -116 7731.5 -91Q7763 -66 7807 -66Q7833 -66 7850 -70Q7867 -74 7883 -79Q7891 -82 7903 -89.5Q7915 -97 7925 -103.5Q7935 -110 7935 -110Q7937 -109 7940 -104Q7943 -99 7943 -94Q7943 -83 7937 -75Q7927 -57 7903.5 -38.5Q7880 -20 7848 -7Q7816 6 7779 6ZM7681 -274H7843Q7852 -274 7852 -289Q7852 -313 7841.5 -337.5Q7831 -362 7811.5 -379Q7792 -396 7766 -396Q7735 -396 7714.5 -375Q7694 -354 7684.5 -327Q7675 -300 7675 -281Q7675 -274 7681 -274Z"/>
</svg>
